<svg xmlns="http://www.w3.org/2000/svg" xmlns:xlink="http://www.w3.org/1999/xlink" width="2000" zoomAndPan="magnify" viewBox="0 0 1500 299.999988" height="400" preserveAspectRatio="xMidYMid meet" version="1.0"><defs><g/><clipPath id="56c9d8325a"><rect x="0" width="1302" y="0" height="227"/></clipPath></defs><rect x="-150" width="1800" fill="#ffffff" y="-29.999999" height="359.999986" fill-opacity="1"/><rect x="-150" width="1800" fill="#ffffff" y="-29.999999" height="359.999986" fill-opacity="1"/><g transform="matrix(1, 0, 0, 1, 94, 55)"><g clip-path="url(#56c9d8325a)"><g fill="#000000" fill-opacity="1"><g transform="translate(1.088289, 182.929358)"><g><path d="M 78.46875 3.515625 C 65.050781 3.515625 53.226562 1.085938 43 -3.765625 C 32.78125 -8.628906 24.773438 -15.585938 18.984375 -24.640625 C 13.203125 -33.703125 10.3125 -44.519531 10.3125 -57.09375 L 48.796875 -57.09375 C 48.796875 -48.539062 51.769531 -42.207031 57.71875 -38.09375 C 63.664062 -33.988281 70.5 -31.9375 78.21875 -31.9375 C 83.082031 -31.9375 87.648438 -32.734375 91.921875 -34.328125 C 96.203125 -35.921875 99.722656 -38.269531 102.484375 -41.375 C 105.253906 -44.476562 106.640625 -48.207031 106.640625 -52.5625 C 106.640625 -57.09375 105.046875 -60.65625 101.859375 -63.25 C 98.671875 -65.851562 94.394531 -67.992188 89.03125 -69.671875 C 83.664062 -71.347656 77.796875 -72.9375 71.421875 -74.4375 C 64.890625 -75.945312 58.1875 -77.789062 51.3125 -79.96875 C 44.4375 -82.15625 38.0625 -85.050781 32.1875 -88.65625 C 26.320312 -92.257812 21.628906 -97.117188 18.109375 -103.234375 C 14.585938 -109.359375 12.828125 -117.113281 12.828125 -126.5 C 12.828125 -143.4375 18.566406 -156.472656 30.046875 -165.609375 C 41.535156 -174.742188 57.085938 -179.3125 76.703125 -179.3125 C 96.828125 -179.3125 112.421875 -174.238281 123.484375 -164.09375 C 134.546875 -153.957031 140.078125 -140.171875 140.078125 -122.734375 L 102.359375 -122.734375 C 102.359375 -130.273438 99.675781 -135.847656 94.3125 -139.453125 C 88.945312 -143.054688 82.742188 -144.859375 75.703125 -144.859375 C 69.492188 -144.859375 63.789062 -143.515625 58.59375 -140.828125 C 53.394531 -138.148438 50.796875 -133.960938 50.796875 -128.265625 C 50.796875 -124.078125 52.347656 -120.765625 55.453125 -118.328125 C 58.554688 -115.898438 62.664062 -113.890625 67.78125 -112.296875 C 72.894531 -110.703125 78.550781 -109.148438 84.75 -107.640625 C 91.457031 -105.960938 98.332031 -103.992188 105.375 -101.734375 C 112.414062 -99.472656 118.953125 -96.410156 124.984375 -92.546875 C 131.023438 -88.691406 135.929688 -83.578125 139.703125 -77.203125 C 143.472656 -70.835938 145.359375 -62.789062 145.359375 -53.0625 C 145.359375 -40.320312 142.296875 -29.757812 136.171875 -21.375 C 130.054688 -12.988281 121.96875 -6.742188 111.90625 -2.640625 C 101.851562 1.460938 90.707031 3.515625 78.46875 3.515625 Z M 78.46875 3.515625 "/></g></g></g><g fill="#000000" fill-opacity="1"><g transform="translate(124.071893, 182.929358)"><g><path d="M 137.0625 0 L 124.75 -33.453125 L 54.578125 -33.453125 L 42.5 0 L 2.265625 0 L 71.171875 -176.046875 L 107.140625 -176.046875 L 178.3125 0 Z M 89.53125 -129.515625 L 66.640625 -66.640625 L 112.671875 -66.640625 Z M 89.53125 -129.515625 "/></g></g></g><g fill="#000000" fill-opacity="1"><g transform="translate(271.954034, 182.929358)"><g><path d="M 131.78125 -176.046875 L 169.015625 -176.046875 L 169.015625 0 L 137.3125 0 L 57.59375 -109.90625 L 57.59375 0 L 20.125 0 L 20.125 -176.046875 L 54.578125 -176.046875 L 131.78125 -68.65625 Z M 131.78125 -176.046875 "/></g></g></g><g fill="#000000" fill-opacity="1"><g transform="translate(428.387165, 182.929358)"><g/></g></g><g fill="#000000" fill-opacity="1"><g transform="translate(455.800512, 182.929358)"><g><path d="M 137.0625 0 L 124.75 -33.453125 L 54.578125 -33.453125 L 42.5 0 L 2.265625 0 L 71.171875 -176.046875 L 107.140625 -176.046875 L 178.3125 0 Z M 89.53125 -129.515625 L 66.640625 -66.640625 L 112.671875 -66.640625 Z M 89.53125 -129.515625 "/></g></g></g><g fill="#000000" fill-opacity="1"><g transform="translate(603.682653, 182.929358)"><g><path d="M 131.78125 -176.046875 L 169.015625 -176.046875 L 169.015625 0 L 137.3125 0 L 57.59375 -109.90625 L 57.59375 0 L 20.125 0 L 20.125 -176.046875 L 54.578125 -176.046875 L 131.78125 -68.65625 Z M 131.78125 -176.046875 "/></g></g></g><g fill="#000000" fill-opacity="1"><g transform="translate(760.115744, 182.929358)"><g><path d="M 86.765625 -176.046875 C 99.679688 -176.046875 111.585938 -173.863281 122.484375 -169.5 C 133.378906 -165.144531 142.804688 -159.023438 150.765625 -151.140625 C 158.734375 -143.265625 164.9375 -134.003906 169.375 -123.359375 C 173.820312 -112.710938 176.046875 -101.019531 176.046875 -88.28125 C 176.046875 -75.53125 173.820312 -63.789062 169.375 -53.0625 C 164.9375 -42.332031 158.734375 -32.984375 150.765625 -25.015625 C 142.804688 -17.054688 133.378906 -10.894531 122.484375 -6.53125 C 111.585938 -2.175781 99.679688 0 86.765625 0 L 20.125 0 L 20.125 -176.046875 Z M 85.765625 -35.46875 C 95.816406 -35.46875 104.695312 -37.726562 112.40625 -42.25 C 120.125 -46.78125 126.160156 -53.023438 130.515625 -60.984375 C 134.878906 -68.953125 137.0625 -78.050781 137.0625 -88.28125 C 137.0625 -98.507812 134.878906 -107.5625 130.515625 -115.4375 C 126.160156 -123.320312 120.125 -129.484375 112.40625 -133.921875 C 104.695312 -138.367188 95.816406 -140.59375 85.765625 -140.59375 L 58.34375 -140.59375 L 58.34375 -35.46875 Z M 85.765625 -35.46875 "/></g></g></g><g fill="#000000" fill-opacity="1"><g transform="translate(913.782429, 182.929358)"><g><path d="M 116.953125 0 L 82.75 -60.109375 L 58.34375 -60.109375 L 58.34375 0 L 20.125 0 L 20.125 -176.046875 L 91.296875 -176.046875 C 103.035156 -176.046875 113.515625 -173.53125 122.734375 -168.5 C 131.953125 -163.46875 139.242188 -156.59375 144.609375 -147.875 C 149.972656 -139.15625 152.65625 -129.097656 152.65625 -117.703125 C 152.65625 -106.296875 149.765625 -96.109375 143.984375 -87.140625 C 138.203125 -78.171875 130.445312 -71.335938 120.71875 -66.640625 L 159.703125 0 Z M 58.34375 -140.84375 L 58.34375 -95.3125 L 88.78125 -95.3125 C 96.65625 -95.3125 102.859375 -97.445312 107.390625 -101.71875 C 111.921875 -106 114.1875 -111.410156 114.1875 -117.953125 C 114.1875 -124.660156 111.921875 -130.148438 107.390625 -134.421875 C 102.859375 -138.703125 96.65625 -140.84375 88.78125 -140.84375 Z M 58.34375 -140.84375 "/></g></g></g><g fill="#000000" fill-opacity="1"><g transform="translate(1047.329031, 182.929358)"><g><path d="M 58.34375 -35.46875 L 128.515625 -35.46875 L 128.515625 0 L 20.125 0 L 20.125 -176.046875 L 125.75 -176.046875 L 125.75 -140.84375 L 58.34375 -140.84375 L 58.34375 -106.140625 L 119.21875 -106.140625 L 119.21875 -71.671875 L 58.34375 -71.671875 Z M 58.34375 -35.46875 "/></g></g></g><g fill="#000000" fill-opacity="1"><g transform="translate(1155.222573, 182.929358)"><g><path d="M 78.46875 3.515625 C 65.050781 3.515625 53.226562 1.085938 43 -3.765625 C 32.78125 -8.628906 24.773438 -15.585938 18.984375 -24.640625 C 13.203125 -33.703125 10.3125 -44.519531 10.3125 -57.09375 L 48.796875 -57.09375 C 48.796875 -48.539062 51.769531 -42.207031 57.71875 -38.09375 C 63.664062 -33.988281 70.5 -31.9375 78.21875 -31.9375 C 83.082031 -31.9375 87.648438 -32.734375 91.921875 -34.328125 C 96.203125 -35.921875 99.722656 -38.269531 102.484375 -41.375 C 105.253906 -44.476562 106.640625 -48.207031 106.640625 -52.5625 C 106.640625 -57.09375 105.046875 -60.65625 101.859375 -63.25 C 98.671875 -65.851562 94.394531 -67.992188 89.03125 -69.671875 C 83.664062 -71.347656 77.796875 -72.9375 71.421875 -74.4375 C 64.890625 -75.945312 58.1875 -77.789062 51.3125 -79.96875 C 44.4375 -82.15625 38.0625 -85.050781 32.1875 -88.65625 C 26.320312 -92.257812 21.628906 -97.117188 18.109375 -103.234375 C 14.585938 -109.359375 12.828125 -117.113281 12.828125 -126.5 C 12.828125 -143.4375 18.566406 -156.472656 30.046875 -165.609375 C 41.535156 -174.742188 57.085938 -179.3125 76.703125 -179.3125 C 96.828125 -179.3125 112.421875 -174.238281 123.484375 -164.09375 C 134.546875 -153.957031 140.078125 -140.171875 140.078125 -122.734375 L 102.359375 -122.734375 C 102.359375 -130.273438 99.675781 -135.847656 94.3125 -139.453125 C 88.945312 -143.054688 82.742188 -144.859375 75.703125 -144.859375 C 69.492188 -144.859375 63.789062 -143.515625 58.59375 -140.828125 C 53.394531 -138.148438 50.796875 -133.960938 50.796875 -128.265625 C 50.796875 -124.078125 52.347656 -120.765625 55.453125 -118.328125 C 58.554688 -115.898438 62.664062 -113.890625 67.78125 -112.296875 C 72.894531 -110.703125 78.550781 -109.148438 84.75 -107.640625 C 91.457031 -105.960938 98.332031 -103.992188 105.375 -101.734375 C 112.414062 -99.472656 118.953125 -96.410156 124.984375 -92.546875 C 131.023438 -88.691406 135.929688 -83.578125 139.703125 -77.203125 C 143.472656 -70.835938 145.359375 -62.789062 145.359375 -53.0625 C 145.359375 -40.320312 142.296875 -29.757812 136.171875 -21.375 C 130.054688 -12.988281 121.96875 -6.742188 111.90625 -2.640625 C 101.851562 1.460938 90.707031 3.515625 78.46875 3.515625 Z M 78.46875 3.515625 "/></g></g></g></g></g></svg>