<svg id="Capa_1" data-name="Capa 1" xmlns="http://www.w3.org/2000/svg" viewBox="0 0 600 600"><defs><style>.cls-1{fill:#fff;}</style></defs><title>favicon</title><path class="cls-1" d="M600,73.5V323.25c-.41-.9-.87-1.78-1.24-2.7-11.23-27.76-22.51-55.51-33.61-83.32-1.32-3.29-3-4.43-6.58-4.4-21.37.18-42.74.06-64.11.11-7.08,0-5.7-.92-8.24,5.54q-45.68,116.18-91.3,232.37c-2.12,5.41-4.29,10.81-6.32,15.93-.69-7-.91-14.14-2.16-21.1-3.86-21.53-13.93-39.6-30.93-53.65-16.19-13.37-35-21.63-54.86-27.49-22.1-6.53-44.51-12-66.74-18.12-10.14-2.78-19.95-6.47-28.56-12.76-12.44-9.1-15.09-26-5.93-38.14a35.91,35.91,0,0,1,15-11.49c17.1-7.21,34.62-7.7,52.33-2.63,16.73,4.79,31.48,17.88,32.15,39.86.08,2.86,1.75,3.18,4,3.18q35.43,0,70.87,0c3,0,4.06-1.24,3.69-4.09-1.24-9.63-1.76-19.41-3.8-28.87-5.37-25-18.09-45.56-38.88-60.74-20.35-14.85-43.7-21.47-68.41-23.73a208.69,208.69,0,0,0-46.33.62c-21.37,2.8-41.83,8.34-60.23,19.95A94.33,94.33,0,0,0,122.58,291c-7.49,17.43-9.23,35.68-8,54.28,1,14.2,4.57,27.78,12,40.15,11.21,18.67,28,30.61,47.45,39.22,22.71,10.05,46.82,15.51,70.85,21.18,15,3.55,30.19,6.89,44,14.23,12.19,6.46,19.79,16,18.95,30.5-.66,11.34-6.28,20.23-15.38,26.65-19.62,13.83-41.36,15.66-64,10-16.23-4.07-28.93-13-35.24-29.11-1.92-4.9-2.34-10.38-3.4-15.61-.44-2.18-.35-4.33-3.76-4.31q-36.75.18-73.49,0c-2.61,0-3.67,1-3.42,3.54.78,7.8,1,15.71,2.37,23.39,5,27.29,17.86,50.07,39.48,67.74,17.53,14.33,37.88,22.36,59.73,27.15H74.25c-3.78-.57-7.55-1.12-11.33-1.7C33.3,593.7,8.68,570.61,2.5,541.5c-1-5-1.68-10-2.5-15V73.5q.89-5.67,1.75-11.35C6.33,32,32.45,6,62.55,1.74c3.9-.55,7.8-1.16,11.7-1.74h451.5c3.78.57,7.55,1.12,11.33,1.7,29.65,4.63,54.19,27.64,60.42,56.8C598.56,63.45,599.18,68.5,600,73.5Z"/><path class="cls-1" d="M593.11,528.19q-66.92,0-133.82-.08c-3.33,0-4.82,1.12-5.91,4.17-7.17,20.08-14.57,40.08-21.73,60.16-.06.18-.13.33-.2.5L428.91,600c32.28,0,99.45-.86,100.78-.93,18.94-1,35-8.43,48.26-21.84,11.63-11.74,18.4-25.94,20.88-42.23C599.75,528.94,599.08,528.19,593.11,528.19Z"/><path class="cls-1" d="M345.76,596.13s7.29-18.81,10.74-27.68c-7.9,5.39-15.48,11.12-23.58,16-13.18,7.89-27.8,12.17-42.67,15.59H344.2C344.66,598.8,345.76,596.13,345.76,596.13Z"/><path class="cls-1" d="M573.4,458.47H479.81c15.55-42.41,31-84.52,46.79-127.56C542.35,373.85,557.76,415.84,573.4,458.47Z"/></svg>