<svg xmlns="http://www.w3.org/2000/svg" xmlns:xlink="http://www.w3.org/1999/xlink" width="2000" zoomAndPan="magnify" viewBox="0 0 1500 449.999984" height="600" preserveAspectRatio="xMidYMid meet" version="1.0"><defs><g/><clipPath id="bcec165790"><rect x="0" width="1396" y="0" height="244"/></clipPath></defs><rect x="-150" width="1800" fill="#ffffff" y="-44.999998" height="539.99998" fill-opacity="1"/><rect x="-150" width="1800" fill="#ffffff" y="-44.999998" height="539.99998" fill-opacity="1"/><g transform="matrix(1, 0, 0, 1, 47, 123)"><g clip-path="url(#bcec165790)"><g fill="#000000" fill-opacity="1"><g transform="translate(0.50196, 195.93519)"><g><path d="M 84.171875 3.78125 C 69.785156 3.78125 57.101562 1.171875 46.125 -4.046875 C 35.15625 -9.265625 26.566406 -16.726562 20.359375 -26.4375 C 14.160156 -36.144531 11.0625 -47.742188 11.0625 -61.234375 L 52.34375 -61.234375 C 52.34375 -52.066406 55.53125 -45.28125 61.90625 -40.875 C 68.289062 -36.46875 75.625 -34.265625 83.90625 -34.265625 C 89.113281 -34.265625 94.007812 -35.117188 98.59375 -36.828125 C 103.1875 -38.535156 106.96875 -41.050781 109.9375 -44.375 C 112.90625 -47.707031 114.390625 -51.710938 114.390625 -56.390625 C 114.390625 -61.242188 112.679688 -65.0625 109.265625 -67.84375 C 105.847656 -70.632812 101.257812 -72.925781 95.5 -74.71875 C 89.75 -76.519531 83.457031 -78.234375 76.625 -79.859375 C 69.601562 -81.472656 62.40625 -83.445312 55.03125 -85.78125 C 47.65625 -88.125 40.820312 -91.226562 34.53125 -95.09375 C 28.238281 -98.957031 23.203125 -104.171875 19.421875 -110.734375 C 15.648438 -117.304688 13.765625 -125.628906 13.765625 -135.703125 C 13.765625 -153.867188 19.921875 -167.851562 32.234375 -177.65625 C 44.554688 -187.457031 61.238281 -192.359375 82.28125 -192.359375 C 103.863281 -192.359375 120.585938 -186.914062 132.453125 -176.03125 C 144.328125 -165.144531 150.265625 -150.351562 150.265625 -131.65625 L 109.796875 -131.65625 C 109.796875 -139.75 106.914062 -145.726562 101.15625 -149.59375 C 95.40625 -153.457031 88.753906 -155.390625 81.203125 -155.390625 C 74.546875 -155.390625 68.429688 -153.953125 62.859375 -151.078125 C 57.285156 -148.203125 54.5 -143.707031 54.5 -137.59375 C 54.5 -133.09375 56.160156 -129.535156 59.484375 -126.921875 C 62.816406 -124.316406 67.222656 -122.160156 72.703125 -120.453125 C 78.191406 -118.742188 84.265625 -117.082031 90.921875 -115.46875 C 98.109375 -113.664062 105.476562 -111.550781 113.03125 -109.125 C 120.59375 -106.695312 127.609375 -103.414062 134.078125 -99.28125 C 140.554688 -95.144531 145.816406 -89.660156 149.859375 -82.828125 C 153.910156 -75.992188 155.9375 -67.359375 155.9375 -56.921875 C 155.9375 -43.253906 152.648438 -31.921875 146.078125 -22.921875 C 139.515625 -13.929688 130.835938 -7.234375 120.046875 -2.828125 C 109.253906 1.578125 97.296875 3.78125 84.171875 3.78125 Z M 84.171875 3.78125 "/></g></g></g><g fill="#000000" fill-opacity="1"><g transform="translate(132.421634, 195.93519)"><g><path d="M 147.03125 0 L 133.8125 -35.875 L 58.546875 -35.875 L 45.59375 0 L 2.421875 0 L 76.34375 -188.84375 L 114.921875 -188.84375 L 191.28125 0 Z M 96.046875 -138.9375 L 71.484375 -71.484375 L 120.859375 -71.484375 Z M 96.046875 -138.9375 "/></g></g></g><g fill="#000000" fill-opacity="1"><g transform="translate(291.048991, 195.93519)"><g><path d="M 141.359375 -188.84375 L 181.296875 -188.84375 L 181.296875 0 L 147.296875 0 L 61.78125 -117.890625 L 61.78125 0 L 21.578125 0 L 21.578125 -188.84375 L 58.546875 -188.84375 L 141.359375 -73.65625 Z M 141.359375 -188.84375 "/></g></g></g><g fill="#000000" fill-opacity="1"><g transform="translate(458.848657, 195.93519)"><g/></g></g><g fill="#000000" fill-opacity="1"><g transform="translate(488.253877, 195.93519)"><g><path d="M 147.03125 0 L 133.8125 -35.875 L 58.546875 -35.875 L 45.59375 0 L 2.421875 0 L 76.34375 -188.84375 L 114.921875 -188.84375 L 191.28125 0 Z M 96.046875 -138.9375 L 71.484375 -71.484375 L 120.859375 -71.484375 Z M 96.046875 -138.9375 "/></g></g></g><g fill="#000000" fill-opacity="1"><g transform="translate(646.881233, 195.93519)"><g><path d="M 141.359375 -188.84375 L 181.296875 -188.84375 L 181.296875 0 L 147.296875 0 L 61.78125 -117.890625 L 61.78125 0 L 21.578125 0 L 21.578125 -188.84375 L 58.546875 -188.84375 L 141.359375 -73.65625 Z M 141.359375 -188.84375 "/></g></g></g><g fill="#000000" fill-opacity="1"><g transform="translate(814.680857, 195.93519)"><g><path d="M 93.078125 -188.84375 C 106.921875 -188.84375 119.6875 -186.503906 131.375 -181.828125 C 143.070312 -177.148438 153.191406 -170.582031 161.734375 -162.125 C 170.273438 -153.675781 176.925781 -143.742188 181.6875 -132.328125 C 186.457031 -120.910156 188.84375 -108.363281 188.84375 -94.6875 C 188.84375 -81.019531 186.457031 -68.429688 181.6875 -56.921875 C 176.925781 -45.410156 170.273438 -35.382812 161.734375 -26.84375 C 153.191406 -18.300781 143.070312 -11.691406 131.375 -7.015625 C 119.6875 -2.335938 106.921875 0 93.078125 0 L 21.578125 0 L 21.578125 -188.84375 Z M 92 -38.046875 C 102.789062 -38.046875 112.320312 -40.472656 120.59375 -45.328125 C 128.863281 -50.179688 135.335938 -56.878906 140.015625 -65.421875 C 144.691406 -73.960938 147.03125 -83.71875 147.03125 -94.6875 C 147.03125 -105.664062 144.691406 -115.378906 140.015625 -123.828125 C 135.335938 -132.285156 128.863281 -138.894531 120.59375 -143.65625 C 112.320312 -148.425781 102.789062 -150.8125 92 -150.8125 L 62.59375 -150.8125 L 62.59375 -38.046875 Z M 92 -38.046875 "/></g></g></g><g fill="#000000" fill-opacity="1"><g transform="translate(979.513066, 195.93519)"><g><path d="M 125.453125 0 L 88.765625 -64.484375 L 62.59375 -64.484375 L 62.59375 0 L 21.578125 0 L 21.578125 -188.84375 L 97.9375 -188.84375 C 110.519531 -188.84375 121.753906 -186.144531 131.640625 -180.75 C 141.535156 -175.351562 149.359375 -167.976562 155.109375 -158.625 C 160.867188 -149.28125 163.75 -138.488281 163.75 -126.25 C 163.75 -114.019531 160.644531 -103.09375 154.4375 -93.46875 C 148.238281 -83.851562 139.925781 -76.523438 129.5 -71.484375 L 171.3125 0 Z M 62.59375 -151.078125 L 62.59375 -102.25 L 95.234375 -102.25 C 103.679688 -102.25 110.332031 -104.539062 115.1875 -109.125 C 120.050781 -113.707031 122.484375 -119.507812 122.484375 -126.53125 C 122.484375 -133.71875 120.050781 -139.601562 115.1875 -144.1875 C 110.332031 -148.78125 103.679688 -151.078125 95.234375 -151.078125 Z M 62.59375 -151.078125 "/></g></g></g><g fill="#000000" fill-opacity="1"><g transform="translate(1122.763253, 195.93519)"><g><path d="M 62.59375 -38.046875 L 137.859375 -38.046875 L 137.859375 0 L 21.578125 0 L 21.578125 -188.84375 L 134.890625 -188.84375 L 134.890625 -151.078125 L 62.59375 -151.078125 L 62.59375 -113.84375 L 127.875 -113.84375 L 127.875 -76.890625 L 62.59375 -76.890625 Z M 62.59375 -38.046875 "/></g></g></g><g fill="#000000" fill-opacity="1"><g transform="translate(1238.496412, 195.93519)"><g><path d="M 84.171875 3.78125 C 69.785156 3.78125 57.101562 1.171875 46.125 -4.046875 C 35.15625 -9.265625 26.566406 -16.726562 20.359375 -26.4375 C 14.160156 -36.144531 11.0625 -47.742188 11.0625 -61.234375 L 52.34375 -61.234375 C 52.34375 -52.066406 55.53125 -45.28125 61.90625 -40.875 C 68.289062 -36.46875 75.625 -34.265625 83.90625 -34.265625 C 89.113281 -34.265625 94.007812 -35.117188 98.59375 -36.828125 C 103.1875 -38.535156 106.96875 -41.050781 109.9375 -44.375 C 112.90625 -47.707031 114.390625 -51.710938 114.390625 -56.390625 C 114.390625 -61.242188 112.679688 -65.0625 109.265625 -67.84375 C 105.847656 -70.632812 101.257812 -72.925781 95.5 -74.71875 C 89.75 -76.519531 83.457031 -78.234375 76.625 -79.859375 C 69.601562 -81.472656 62.40625 -83.445312 55.03125 -85.78125 C 47.65625 -88.125 40.820312 -91.226562 34.53125 -95.09375 C 28.238281 -98.957031 23.203125 -104.171875 19.421875 -110.734375 C 15.648438 -117.304688 13.765625 -125.628906 13.765625 -135.703125 C 13.765625 -153.867188 19.921875 -167.851562 32.234375 -177.65625 C 44.554688 -187.457031 61.238281 -192.359375 82.28125 -192.359375 C 103.863281 -192.359375 120.585938 -186.914062 132.453125 -176.03125 C 144.328125 -165.144531 150.265625 -150.351562 150.265625 -131.65625 L 109.796875 -131.65625 C 109.796875 -139.75 106.914062 -145.726562 101.15625 -149.59375 C 95.40625 -153.457031 88.753906 -155.390625 81.203125 -155.390625 C 74.546875 -155.390625 68.429688 -153.953125 62.859375 -151.078125 C 57.285156 -148.203125 54.5 -143.707031 54.5 -137.59375 C 54.5 -133.09375 56.160156 -129.535156 59.484375 -126.921875 C 62.816406 -124.316406 67.222656 -122.160156 72.703125 -120.453125 C 78.191406 -118.742188 84.265625 -117.082031 90.921875 -115.46875 C 98.109375 -113.664062 105.476562 -111.550781 113.03125 -109.125 C 120.59375 -106.695312 127.609375 -103.414062 134.078125 -99.28125 C 140.554688 -95.144531 145.816406 -89.660156 149.859375 -82.828125 C 153.910156 -75.992188 155.9375 -67.359375 155.9375 -56.921875 C 155.9375 -43.253906 152.648438 -31.921875 146.078125 -22.921875 C 139.515625 -13.929688 130.835938 -7.234375 120.046875 -2.828125 C 109.253906 1.578125 97.296875 3.78125 84.171875 3.78125 Z M 84.171875 3.78125 "/></g></g></g></g></g></svg>