<svg xmlns="http://www.w3.org/2000/svg" xmlns:xlink="http://www.w3.org/1999/xlink" width="2000" zoomAndPan="magnify" viewBox="0 0 1500 299.999988" height="400" preserveAspectRatio="xMidYMid meet" version="1.0"><defs><g/></defs><g fill="#000000" fill-opacity="1"><g transform="translate(2.661664, 250.442996)"><g><path d="M 89.546875 4.015625 C 74.234375 4.015625 60.738281 1.242188 49.0625 -4.296875 C 37.394531 -9.847656 28.257812 -17.789062 21.65625 -28.125 C 15.0625 -38.457031 11.765625 -50.800781 11.765625 -65.15625 L 55.671875 -65.15625 C 55.671875 -55.394531 59.066406 -48.171875 65.859375 -43.484375 C 72.660156 -38.796875 80.457031 -36.453125 89.25 -36.453125 C 94.800781 -36.453125 100.015625 -37.359375 104.890625 -39.171875 C 109.773438 -40.992188 113.796875 -43.671875 116.953125 -47.203125 C 120.109375 -50.742188 121.6875 -55.003906 121.6875 -59.984375 C 121.6875 -65.148438 119.867188 -69.210938 116.234375 -72.171875 C 112.597656 -75.140625 107.71875 -77.582031 101.59375 -79.5 C 95.46875 -81.414062 88.773438 -83.234375 81.515625 -84.953125 C 74.046875 -86.671875 66.390625 -88.773438 58.546875 -91.265625 C 50.703125 -93.753906 43.429688 -97.054688 36.734375 -101.171875 C 30.035156 -105.285156 24.675781 -110.832031 20.65625 -117.8125 C 16.644531 -124.789062 14.640625 -133.640625 14.640625 -144.359375 C 14.640625 -163.679688 21.191406 -178.554688 34.296875 -188.984375 C 47.398438 -199.410156 65.144531 -204.625 87.53125 -204.625 C 110.488281 -204.625 128.28125 -198.835938 140.90625 -187.265625 C 153.539062 -175.691406 159.859375 -159.957031 159.859375 -140.0625 L 116.8125 -140.0625 C 116.8125 -148.664062 113.75 -155.023438 107.625 -159.140625 C 101.5 -163.253906 94.421875 -165.3125 86.390625 -165.3125 C 79.304688 -165.3125 72.796875 -163.78125 66.859375 -160.71875 C 60.929688 -157.65625 57.96875 -152.875 57.96875 -146.375 C 57.96875 -141.582031 59.738281 -137.800781 63.28125 -135.03125 C 66.820312 -132.257812 71.507812 -129.960938 77.34375 -128.140625 C 83.175781 -126.328125 89.632812 -124.5625 96.71875 -122.84375 C 104.375 -120.925781 112.21875 -118.675781 120.25 -116.09375 C 128.289062 -113.507812 135.753906 -110.015625 142.640625 -105.609375 C 149.523438 -101.210938 155.117188 -95.378906 159.421875 -88.109375 C 163.734375 -80.835938 165.890625 -71.65625 165.890625 -60.5625 C 165.890625 -46.019531 162.394531 -33.960938 155.40625 -24.390625 C 148.425781 -14.828125 139.195312 -7.703125 127.71875 -3.015625 C 116.238281 1.671875 103.515625 4.015625 89.546875 4.015625 Z M 89.546875 4.015625 "/></g></g></g><g fill="#000000" fill-opacity="1"><g transform="translate(143.001742, 250.442996)"><g><path d="M 156.421875 0 L 142.359375 -38.171875 L 62.28125 -38.171875 L 48.5 0 L 2.578125 0 L 81.21875 -200.90625 L 122.265625 -200.90625 L 203.484375 0 Z M 102.171875 -147.8125 L 76.0625 -76.0625 L 128.578125 -76.0625 Z M 102.171875 -147.8125 "/></g></g></g><g fill="#000000" fill-opacity="1"><g transform="translate(311.754248, 250.442996)"><g><path d="M 150.390625 -200.90625 L 192.859375 -200.90625 L 192.859375 0 L 156.703125 0 L 65.71875 -125.421875 L 65.71875 0 L 22.953125 0 L 22.953125 -200.90625 L 62.28125 -200.90625 L 150.390625 -78.34375 Z M 150.390625 -200.90625 "/></g></g></g><g fill="#000000" fill-opacity="1"><g transform="translate(490.264531, 250.442996)"><g/></g></g><g fill="#000000" fill-opacity="1"><g transform="translate(521.546679, 250.442996)"><g><path d="M 156.421875 0 L 142.359375 -38.171875 L 62.28125 -38.171875 L 48.5 0 L 2.578125 0 L 81.21875 -200.90625 L 122.265625 -200.90625 L 203.484375 0 Z M 102.171875 -147.8125 L 76.0625 -76.0625 L 128.578125 -76.0625 Z M 102.171875 -147.8125 "/></g></g></g><g fill="#000000" fill-opacity="1"><g transform="translate(690.299186, 250.442996)"><g><path d="M 150.390625 -200.90625 L 192.859375 -200.90625 L 192.859375 0 L 156.703125 0 L 65.71875 -125.421875 L 65.71875 0 L 22.953125 0 L 22.953125 -200.90625 L 62.28125 -200.90625 L 150.390625 -78.34375 Z M 150.390625 -200.90625 "/></g></g></g><g fill="#000000" fill-opacity="1"><g transform="translate(868.809423, 250.442996)"><g><path d="M 99.015625 -200.90625 C 113.742188 -200.90625 127.328125 -198.414062 139.765625 -193.4375 C 152.203125 -188.457031 162.960938 -181.472656 172.046875 -172.484375 C 181.140625 -163.492188 188.222656 -152.921875 193.296875 -140.765625 C 198.367188 -128.617188 200.90625 -115.273438 200.90625 -100.734375 C 200.90625 -86.191406 198.367188 -72.796875 193.296875 -60.546875 C 188.222656 -48.304688 181.140625 -37.640625 172.046875 -28.546875 C 162.960938 -19.460938 152.203125 -12.429688 139.765625 -7.453125 C 127.328125 -2.484375 113.742188 0 99.015625 0 L 22.953125 0 L 22.953125 -200.90625 Z M 97.859375 -40.46875 C 109.347656 -40.46875 119.488281 -43.050781 128.28125 -48.21875 C 137.082031 -53.382812 143.972656 -60.507812 148.953125 -69.59375 C 153.929688 -78.6875 156.421875 -89.066406 156.421875 -100.734375 C 156.421875 -112.410156 153.929688 -122.742188 148.953125 -131.734375 C 143.972656 -140.722656 137.082031 -147.753906 128.28125 -152.828125 C 119.488281 -157.898438 109.347656 -160.4375 97.859375 -160.4375 L 66.578125 -160.4375 L 66.578125 -40.46875 Z M 97.859375 -40.46875 "/></g></g></g><g fill="#000000" fill-opacity="1"><g transform="translate(1044.162837, 250.442996)"><g><path d="M 133.453125 0 L 94.421875 -68.59375 L 66.578125 -68.59375 L 66.578125 0 L 22.953125 0 L 22.953125 -200.90625 L 104.1875 -200.90625 C 117.570312 -200.90625 129.523438 -198.035156 140.046875 -192.296875 C 150.578125 -186.554688 158.898438 -178.707031 165.015625 -168.75 C 171.140625 -158.800781 174.203125 -147.320312 174.203125 -134.3125 C 174.203125 -121.300781 170.898438 -109.675781 164.296875 -99.4375 C 157.703125 -89.207031 148.859375 -81.414062 137.765625 -76.0625 L 182.25 0 Z M 66.578125 -160.71875 L 66.578125 -108.765625 L 101.3125 -108.765625 C 110.300781 -108.765625 117.378906 -111.203125 122.546875 -116.078125 C 127.710938 -120.960938 130.296875 -127.140625 130.296875 -134.609375 C 130.296875 -142.253906 127.710938 -148.515625 122.546875 -153.390625 C 117.378906 -158.273438 110.300781 -160.71875 101.3125 -160.71875 Z M 66.578125 -160.71875 "/></g></g></g><g fill="#000000" fill-opacity="1"><g transform="translate(1196.556652, 250.442996)"><g><path d="M 66.578125 -40.46875 L 146.65625 -40.46875 L 146.65625 0 L 22.953125 0 L 22.953125 -200.90625 L 143.5 -200.90625 L 143.5 -160.71875 L 66.578125 -160.71875 L 66.578125 -121.109375 L 136.03125 -121.109375 L 136.03125 -81.796875 L 66.578125 -81.796875 Z M 66.578125 -40.46875 "/></g></g></g><g fill="#000000" fill-opacity="1"><g transform="translate(1319.677033, 250.442996)"><g><path d="M 89.546875 4.015625 C 74.234375 4.015625 60.738281 1.242188 49.0625 -4.296875 C 37.394531 -9.847656 28.257812 -17.789062 21.65625 -28.125 C 15.0625 -38.457031 11.765625 -50.800781 11.765625 -65.15625 L 55.671875 -65.15625 C 55.671875 -55.394531 59.066406 -48.171875 65.859375 -43.484375 C 72.660156 -38.796875 80.457031 -36.453125 89.25 -36.453125 C 94.800781 -36.453125 100.015625 -37.359375 104.890625 -39.171875 C 109.773438 -40.992188 113.796875 -43.671875 116.953125 -47.203125 C 120.109375 -50.742188 121.6875 -55.003906 121.6875 -59.984375 C 121.6875 -65.148438 119.867188 -69.210938 116.234375 -72.171875 C 112.597656 -75.140625 107.71875 -77.582031 101.59375 -79.5 C 95.46875 -81.414062 88.773438 -83.234375 81.515625 -84.953125 C 74.046875 -86.671875 66.390625 -88.773438 58.546875 -91.265625 C 50.703125 -93.753906 43.429688 -97.054688 36.734375 -101.171875 C 30.035156 -105.285156 24.675781 -110.832031 20.65625 -117.8125 C 16.644531 -124.789062 14.640625 -133.640625 14.640625 -144.359375 C 14.640625 -163.679688 21.191406 -178.554688 34.296875 -188.984375 C 47.398438 -199.410156 65.144531 -204.625 87.53125 -204.625 C 110.488281 -204.625 128.28125 -198.835938 140.90625 -187.265625 C 153.539062 -175.691406 159.859375 -159.957031 159.859375 -140.0625 L 116.8125 -140.0625 C 116.8125 -148.664062 113.75 -155.023438 107.625 -159.140625 C 101.5 -163.253906 94.421875 -165.3125 86.390625 -165.3125 C 79.304688 -165.3125 72.796875 -163.78125 66.859375 -160.71875 C 60.929688 -157.65625 57.96875 -152.875 57.96875 -146.375 C 57.96875 -141.582031 59.738281 -137.800781 63.28125 -135.03125 C 66.820312 -132.257812 71.507812 -129.960938 77.34375 -128.140625 C 83.175781 -126.328125 89.632812 -124.5625 96.71875 -122.84375 C 104.375 -120.925781 112.21875 -118.675781 120.25 -116.09375 C 128.289062 -113.507812 135.753906 -110.015625 142.640625 -105.609375 C 149.523438 -101.210938 155.117188 -95.378906 159.421875 -88.109375 C 163.734375 -80.835938 165.890625 -71.65625 165.890625 -60.5625 C 165.890625 -46.019531 162.394531 -33.960938 155.40625 -24.390625 C 148.425781 -14.828125 139.195312 -7.703125 127.71875 -3.015625 C 116.238281 1.671875 103.515625 4.015625 89.546875 4.015625 Z M 89.546875 4.015625 "/></g></g></g></svg>